<svg width="72" height="72" viewBox="0 0 72 72" fill="none" xmlns="http://www.w3.org/2000/svg">
<path d="M10.911 10.302L37.131 36.015L11.106 61.965C10.6802 61.4105 10.3497 60.789 10.128 60.126C10.0133 59.3753 10.0133 58.6116 10.128 57.861V13.701C10.05 12.516 10.323 11.331 10.908 10.302M48.426 24.801L39.867 33.279L13.959 7.79999C14.799 7.50899 15.699 7.42799 16.578 7.56599C17.958 7.94399 19.275 8.52599 20.484 9.28499L43.932 22.26C45.456 23.079 46.941 23.94 48.426 24.801ZM39.87 38.79L48.387 47.154L42.213 50.592L23.376 61.062C21.816 61.923 20.25 62.745 18.726 63.684C18.0739 64.09 17.3426 64.3522 16.5811 64.4531C15.8196 64.5539 15.0453 64.4912 14.31 64.269L39.87 38.79ZM61.95 36.015C61.9719 37.064 61.7068 38.0991 61.1834 39.0085C60.6599 39.9179 59.8981 40.667 58.98 41.175L51.942 45.081L42.681 36.015L51.981 26.793C54.366 28.122 56.712 29.451 59.055 30.702C59.9894 31.2243 60.7569 32.0004 61.2687 32.9406C61.7805 33.8808 62.0186 34.9467 61.95 36.015Z" fill="#006CE4"/>
</svg>
