<svg width="46" height="54" viewBox="0 0 46 54" fill="none" xmlns="http://www.w3.org/2000/svg">
<path d="M38.1495 51.84C35.2095 54.69 31.9995 54.24 28.9095 52.89C25.6395 51.51 22.6395 51.45 19.1895 52.89C14.8695 54.75 12.5895 54.21 10.0095 51.84C-4.63049 36.75 -2.47048 13.77 14.1495 12.93C18.1995 13.14 21.0195 15.15 23.3895 15.33C26.9295 14.61 30.3195 12.54 34.0995 12.81C38.6295 13.17 42.0495 14.97 44.2995 18.21C34.9395 23.82 37.1595 36.15 45.7395 39.6C44.0295 44.1 41.8095 48.57 38.1195 51.87L38.1495 51.84ZM23.0895 12.75C22.6395 6.06 28.0695 0.54 34.3095 0C35.1795 7.74 27.2895 13.5 23.0895 12.75Z" fill="#006CE4"/>
</svg>
